<?xml version="1.0" encoding="UTF-8"?>
<svg xmlns="http://www.w3.org/2000/svg" viewBox="0 0 256 360" width="256" height="360">
  <defs>
    <linearGradient id="back-red" x1="0" y1="0" x2="1" y2="1">
      <stop offset="0" stop-color="#8f1724"/>
      <stop offset="0.58" stop-color="#4a0711"/>
      <stop offset="1" stop-color="#190508"/>
    </linearGradient>
    <linearGradient id="back-gold" x1="0" y1="0" x2="1" y2="1">
      <stop offset="0" stop-color="#fff0a8"/>
      <stop offset="0.45" stop-color="#b8781f"/>
      <stop offset="1" stop-color="#f8d77a"/>
    </linearGradient>
    <pattern id="back-grain" x="0" y="0" width="26" height="26" patternUnits="userSpaceOnUse">
      <circle cx="7" cy="8" r="0.9" fill="#fff2b8" fill-opacity="0.08"/>
      <circle cx="20" cy="19" r="0.8" fill="#000000" fill-opacity="0.1"/>
    </pattern>
    <filter id="back-shadow" x="-12%" y="-12%" width="124%" height="124%">
      <feDropShadow dx="0" dy="7" stdDeviation="5" flood-color="#000000" flood-opacity="0.3"/>
    </filter>
  </defs>
  <rect x="7" y="8" width="242" height="345" rx="24" fill="#000000" opacity="0.32" filter="url(#back-shadow)"/>
  <rect x="8" y="7" width="240" height="346" rx="24" fill="url(#back-red)" stroke="#120608" stroke-width="3"/>
  <rect x="8" y="7" width="240" height="346" rx="24" fill="url(#back-grain)"/>
  <rect x="17" y="16" width="222" height="328" rx="18" fill="none" stroke="url(#back-gold)" stroke-width="3"/>
  <rect x="27" y="26" width="202" height="308" rx="13" fill="none" stroke="#fff0a8" stroke-opacity="0.24" stroke-width="1.3"/>
  <circle cx="128" cy="180" r="76" fill="#190508" fill-opacity="0.38" stroke="url(#back-gold)" stroke-width="2.5"/>
  <path d="M128 78 C96 116 72 139 72 166 C72 194 95 211 119 202 C113 226 102 243 88 260 H168 C154 243 143 226 137 202 C161 211 184 194 184 166 C184 139 160 116 128 78 Z"
        fill="url(#back-gold)" stroke="#2a1204" stroke-width="2" stroke-linejoin="round"/>
</svg>
